<svg width="7.675em" height="4.9em" viewBox="0 0 250 196" fill="none" xmlns="http://www.w3.org/2000/svg">
  <g id="svg_11">
   <g id="svg_9">
    <path d="m209.62,92.23c0,53.78 0,51.55 0,51.14c0,-0.4 -100.01,-0.71 -100.01,-1.12c0,-0.4 133.34,-135.18 133.34,-135.59c0,-0.4 33.34,39.63 33.34,39.22c0,-0.4 -33.34,8.25 -33.34,8.25c0,0 0,-23.53 0,-23.94c0,-0.4 -33.34,17.21 0,12.73" fill="#00ff7f" id="svg_6" stroke="#000000"/>
    <path d="m252.15,102.36c0,45.03 0,43.16 0,42.82c0,-0.34 -133.34,-0.6 -133.34,-0.94c0,-0.34 133.34,-113.17 133.34,-113.52c0,-0.34 33.34,33.18 33.34,32.84c0,-0.34 -33.34,6.91 -33.34,6.91c0,0 0,-19.7 0,-20.04c0,-0.34 -33.34,14.41 0,10.66" fill="#ff00ff" id="svg_8" stroke="#000000"/>
    <path d="m236.37,134.62l0,-58.16l-78.94,58.16l78.94,0z" fill="#ffffff" id="svg_7" stroke="#000000"/>
   </g>
   <path d="m79.17,92.86c0,54.48 0,52.22 0,51.81c0,-0.41 103.66,-0.72 103.66,-1.13c0,-0.41 -138.21,-136.94 -138.21,-137.36c0,-0.41 -34.56,40.14 -34.56,39.73c0,-0.41 34.56,8.36 34.56,8.36c0,0 0,-23.84 0,-24.25c0,-0.41 34.56,17.44 0,12.9" fill="#007f00" id="svg_30" stroke="#000000"/>
   <path d="m38.55,101.45c0,45.03 0,43.16 0,42.82c0,-0.34 138.21,-0.6 138.21,-0.94c0,-0.34 -138.21,-113.17 -138.21,-113.52c0,-0.34 -34.56,33.18 -34.56,32.84c0,-0.34 34.56,6.91 34.56,6.91c0,0 0,-19.7 0,-20.04c0,-0.34 34.56,14.41 0,10.66" fill="#7f00ff" id="svg_32" stroke="#000000"/>
   <path d="m54.9,133.71l0,-58.16l81.82,58.16l-81.82,0z" fill="#ffffff" id="svg_31" stroke="#000000"/>
  </g>
 </g>
</svg>
